#!OML:ASF F:\VICON\USERDATA\INSTALL\rory3\rory3.ASF
:FULLY-SPECIFIED
:DEGREES
1185
root -5.22442 17.0014 10.6205 -159.298 -28.6604 -179.325
lowerback -20.3461 0.353995 0.22715
upperback -9.18364 -1.10441 3.00843
thorax 1.5005 -1.10623 2.82088
lowerneck -5.57938 -11.6073 -16.96
upperneck 33.2689 -23.6104 10.9959
head 16.2493 -12.4759 2.97338
rclavicle -6.86801e-014 -3.18055e-015
rhumerus -10.4055 27.1247 -79.1613
rradius 87.916
rwrist -56.0998
rhand 3.21046 6.05727
rfingers 7.12502
rthumb 28.6616 -21.7642
lclavicle -6.86801e-014 -3.18055e-015
lhumerus 28.517 14.4526 -2.41884
lradius 29.2068
lwrist -18.5961
lhand 6.83852 27.8176
lfingers 7.12502
lthumb 32.122 54.999
rfemur -14.971 -11.8666 32.2929
rtibia 43.5848
rfoot 14.3227 -22.6564
rtoes 15.2242
lfemur -39.928 9.73645 -37.2533
ltibia 28.6425
lfoot -27.3095 28.6979
ltoes 7.1345
1186
root -5.21766 17.0042 10.6466 -159.284 -28.377 -179.149
lowerback -20.718 0.317039 0.345372
upperback -8.79689 -1.15621 3.20962
thorax 2.11079 -1.11651 2.94783
lowerneck -5.3507 -12.3468 -17.2712
upperneck 32.9077 -24.4096 10.4168
head 16.1129 -12.8611 2.61503
rclavicle -6.85807e-015 -2.46493e-014
rhumerus -10.3712 26.226 -80.7177
rradius 87.0753
rwrist -62.0469
rhand 4.74089 4.67089
rfingers 7.12502
rthumb 30.1228 -22.8941
lclavicle -6.85807e-015 -2.46493e-014
lhumerus 27.6882 14.6343 -2.25028
lradius 29.1907
lwrist -18.5053
lhand 6.85758 27.8094
lfingers 7.12502
lthumb 32.1401 54.9872
rfemur -15.1942 -11.7352 32.4627
rtibia 43.4159
rfoot 15.1338 -22.7686
rtoes 13.615
lfemur -40.1965 9.615 -37.093
ltibia 28.6728
lfoot -28.8078 28.156
ltoes 11.1006
1187
root -5.21631 17.007 10.659 -159.35 -28.3494 -178.861
lowerback -21.1321 0.187035 0.559463
upperback -8.47519 -1.37108 3.48135
thorax 2.68136 -1.21454 3.05978
lowerneck -5.07178 -12.9526 -17.6275
upperneck 32.5244 -25.0989 10.042
head 15.9781 -13.1997 2.37935
rclavicle 1.73937e-014 3.57812e-014
rhumerus -10.6806 25.9475 -82.1922
rradius 86.0481
rwrist -67.8356
rhand 6.99838 3.41079
rfingers 7.12502
rthumb 32.2741 -23.7398
lclavicle 1.73937e-014 3.57812e-014
lhumerus 26.6396 14.5527 -2.31423
lradius 29.242
lwrist -18.1489
lhand 7.05575 27.5351
lfingers 7.12502
lthumb 32.3288 54.6745
rfemur -15.1918 -11.8285 32.7664
rtibia 43.2019
rfoot 14.9389 -23.0805
rtoes 13.109
lfemur -40.3244 9.41229 -36.738
ltibia 28.6773
lfoot -28.9977 28.3658
ltoes 11.336
1188
root -5.21451 17.0077 10.6576 -159.408 -28.3562 -178.808
lowerback -21.5131 -0.0452486 0.465348
upperback -8.17882 -1.65979 3.74499
thorax 3.21775 -1.343 3.32104
lowerneck -4.53496 -13.4971 -17.8889
upperneck 31.9357 -25.6973 9.7002
head 15.66 -13.5062 2.20399
rclavicle -4.67144e-015 -5.1684e-014
rhumerus -11.1318 26.198 -83.3926
rradius 84.699
rwrist -72.735
rhand 9.55842 2.4993
rfingers 7.12502
rthumb 34.7074 -24.1246
lclavicle -4.67144e-015 -5.1684e-014
lhumerus 25.5367 14.2999 -2.43373
lradius 29.2492
lwrist -17.6227
lhand 7.04951 27.0606
lfingers 7.12502
lthumb 32.3228 54.2013
rfemur -14.8851 -12.0655 32.8691
rtibia 42.965
rfoot 14.4335 -23.3162
rtoes 13.3492
lfemur -40.2507 9.41718 -36.644
ltibia 28.6381
lfoot -29.261 28.2072
ltoes 11.8174
1189
root -5.21324 17.0112 10.6569 -159.288 -28.2147 -179.095
lowerback -21.8741 -0.267422 0.0208068
upperback -7.95773 -1.85715 3.86958
thorax 3.66354 -1.42594 3.65503
lowerneck -3.765 -13.9709 -17.978
upperneck 31.2412 -26.2911 9.46175
head 15.2379 -13.8102 2.08439
rclavicle -4.00551e-014 5.48646e-014
rhumerus -11.917 26.5428 -84.597
rradius 83.2283
rwrist -75.8262
rhand 11.7197 1.81572
rfingers 7.12502
rthumb 36.7555 -24.3116
lclavicle -4.00551e-014 5.48646e-014
lhumerus 24.7691 14.3209 -2.19055
lradius 29.102
lwrist -17.5085
lhand 7.19281 26.8818
lfingers 7.12502
lthumb 32.4592 53.9946
rfemur -14.6902 -12.2929 32.6045
rtibia 42.7384
rfoot 14.4304 -23.492
rtoes 13.6998
lfemur -40.1206 9.27135 -36.821
ltibia 28.5705
lfoot -29.8058 27.9668
ltoes 13.0368
1190
root -5.20905 17.0172 10.6596 -159.266 -28.0054 -179.189
lowerback -22.0684 -0.420544 -0.248158
upperback -7.835 -2.00478 3.97951
thorax 3.91417 -1.49273 3.88752
lowerneck -2.92221 -14.3295 -17.9653
upperneck 30.5397 -26.8186 9.37435
head 14.8074 -14.0821 2.04089
rclavicle 3.35946e-014 -7.95139e-016
rhumerus -12.995 26.8855 -85.8603
rradius 81.8306
rwrist -77.6907
rhand 14.3389 0.412464
rfingers 7.12502
rthumb 39.229 -25.0416
lclavicle 3.35946e-014 -7.95139e-016
lhumerus 24.1365 14.3112 -1.98741
lradius 28.8537
lwrist -17.5991
lhand 7.63803 27.1375
lfingers 7.12502
lthumb 32.8828 54.1624
rfemur -14.5996 -12.2743 32.5033
rtibia 42.5522
rfoot 14.3524 -23.7481
rtoes 13.2221
lfemur -39.9918 9.059 -36.7488
ltibia 28.4412
lfoot -30.4421 27.7795
ltoes 14.5616
1191
root -5.20212 17.0239 10.6658 -159.372 -27.8107 -178.941
lowerback -22.0699 -0.453444 -0.132149
upperback -7.83979 -2.09102 4.10585
thorax 3.91768 -1.54009 3.93584
lowerneck -2.25716 -14.6242 -17.901
upperneck 29.9545 -27.259 9.32027
head 14.4585 -14.3046 2.00598
rclavicle 4.2043e-014 -4.13472e-014
rhumerus -14.2976 27.2232 -87.0815
rradius 80.6026
rwrist -78.7278
rhand 16.4292 -1.24058
rfingers 7.12502
rthumb 41.1952 -26.0946
lclavicle 4.2043e-014 -4.13472e-014
lhumerus 23.2284 13.4543 -2.41281
lradius 29.0004
lwrist -16.9513
lhand 7.93638 27.4442
lfingers 7.12502
lthumb 33.1665 54.4091
rfemur -14.6062 -12.1225 32.7282
rtibia 42.4379
rfoot 14.3677 -23.8437
rtoes 11.8812
lfemur -39.9812 9.10656 -36.4782
ltibia 28.2478
lfoot -30.4759 27.8755
ltoes 14.778
